<svg xmlns="http://www.w3.org/2000/svg" width="117" height="117" fill="none" viewBox="0 0 117 117"><g opacity=".05"><mask id="mask0_342_781" width="117" height="117" x="0" y="0" maskUnits="userSpaceOnUse" style="mask-type:alpha"><path fill="url(#paint0_linear_342_781)" fill-rule="evenodd" d="M0.972351 8.33925C0.972351 4.27066 4.2706 0.972412 8.33919 0.972412H109.633C113.702 0.972412 117 4.27066 117 8.33925V29.3349H60.6242C58.8251 22.3446 52.4796 17.1794 44.9277 17.1794C35.9768 17.1794 28.7207 24.4355 28.7207 33.3864C28.7207 42.3373 35.9768 49.5935 44.9277 49.5935C52.4794 49.5935 58.8249 44.4285 60.6241 37.4384H117V109.633C117 113.702 113.702 117 109.633 117H8.33919C4.2706 117 0.972351 113.702 0.972351 109.633V82.0076H61.012V87.9392C61.012 93.6142 65.6125 98.2147 71.2875 98.2147H91.2542C96.9292 98.2147 101.53 93.6142 101.53 87.9392V67.9726C101.53 62.2976 96.9291 57.6971 91.2542 57.6971H71.2875C65.6125 57.6971 61.012 62.2976 61.012 67.9726V73.9041H0.972351V8.33925ZM69.1155 67.9726C69.1155 66.773 70.088 65.8006 71.2875 65.8006H91.2542C92.4537 65.8006 93.4261 66.773 93.4261 67.9726V87.9392C93.4261 89.1388 92.4537 90.1112 91.2542 90.1112H71.2875C70.088 90.1112 69.1155 89.1388 69.1155 87.9392V67.9726ZM44.9277 25.2829C40.4522 25.2829 36.8242 28.911 36.8242 33.3864C36.8242 37.8619 40.4522 41.49 44.9277 41.49C49.4031 41.49 53.0312 37.8619 53.0312 33.3864C53.0312 28.911 49.4031 25.2829 44.9277 25.2829Z" clip-rule="evenodd"/></mask><g mask="url(#mask0_342_781)"><g filter="url(#filter0_f_342_781)"><ellipse cx="136.188" cy="23.913" fill="#0C635E" rx="49.12" ry="104.158" transform="rotate(90 136.188 23.9125)"/></g><g filter="url(#filter1_f_342_781)"><ellipse cx="38.7" cy="111.867" fill="#5CFFEB" rx="69.241" ry="116.586"/></g><g style="mix-blend-mode:screen" filter="url(#filter2_f_342_781)"><ellipse cx="71.946" cy="58.099" fill="#fff" rx="36.68" ry="113.815"/></g><g filter="url(#filter3_f_342_781)"><circle cx="36.617" cy="83.722" r="82.261" fill="#01C9CC"/></g><g filter="url(#filter4_f_342_781)"><ellipse cx="29.333" cy="27.353" fill="#C1FDFA" rx="37.219" ry="19.419"/></g><g filter="url(#filter5_f_342_781)"><ellipse cx="76.261" cy="-6.09" fill="#C1FDFA" rx="43.153" ry="23.734"/></g></g></g><defs><filter id="filter0_f_342_781" width="288.315" height="178.24" x="-7.97" y="-65.207" color-interpolation-filters="sRGB" filterUnits="userSpaceOnUse"><feFlood flood-opacity="0" result="BackgroundImageFix"/><feBlend in="SourceGraphic" in2="BackgroundImageFix" mode="normal" result="shape"/><feGaussianBlur result="effect1_foregroundBlur_342_781" stdDeviation="20"/></filter><filter id="filter1_f_342_781" width="298.482" height="393.171" x="-110.541" y="-84.718" color-interpolation-filters="sRGB" filterUnits="userSpaceOnUse"><feFlood flood-opacity="0" result="BackgroundImageFix"/><feBlend in="SourceGraphic" in2="BackgroundImageFix" mode="normal" result="shape"/><feGaussianBlur result="effect1_foregroundBlur_342_781" stdDeviation="40"/></filter><filter id="filter2_f_342_781" width="233.359" height="387.63" x="-44.733" y="-135.716" color-interpolation-filters="sRGB" filterUnits="userSpaceOnUse"><feFlood flood-opacity="0" result="BackgroundImageFix"/><feBlend in="SourceGraphic" in2="BackgroundImageFix" mode="normal" result="shape"/><feGaussianBlur result="effect1_foregroundBlur_342_781" stdDeviation="40"/></filter><filter id="filter3_f_342_781" width="444.522" height="444.522" x="-185.644" y="-138.539" color-interpolation-filters="sRGB" filterUnits="userSpaceOnUse"><feFlood flood-opacity="0" result="BackgroundImageFix"/><feBlend in="SourceGraphic" in2="BackgroundImageFix" mode="normal" result="shape"/><feGaussianBlur result="effect1_foregroundBlur_342_781" stdDeviation="70"/></filter><filter id="filter4_f_342_781" width="112.438" height="76.837" x="-26.886" y="-11.066" color-interpolation-filters="sRGB" filterUnits="userSpaceOnUse"><feFlood flood-opacity="0" result="BackgroundImageFix"/><feBlend in="SourceGraphic" in2="BackgroundImageFix" mode="normal" result="shape"/><feGaussianBlur result="effect1_foregroundBlur_342_781" stdDeviation="9.5"/></filter><filter id="filter5_f_342_781" width="124.305" height="85.468" x="14.109" y="-48.824" color-interpolation-filters="sRGB" filterUnits="userSpaceOnUse"><feFlood flood-opacity="0" result="BackgroundImageFix"/><feBlend in="SourceGraphic" in2="BackgroundImageFix" mode="normal" result="shape"/><feGaussianBlur result="effect1_foregroundBlur_342_781" stdDeviation="9.5"/></filter><linearGradient id="paint0_linear_342_781" x1="-.501" x2="139.285" y1=".972" y2="148.862" gradientUnits="userSpaceOnUse"><stop stop-color="#00E9DB"/><stop offset="1" stop-color="#249789"/></linearGradient></defs></svg>